HIERARCHY
ROOT hip
{
	OFFSET 0.000000 0.000000 0.000000 
	CHANNELS 6 Xposition Yposition Zposition Xrotation Zrotation Yrotation
	JOINT abdomen
	{
		OFFSET 0.000000 3.402643 0.000000 
		CHANNELS 3 Xrotation Zrotation Yrotation
		JOINT chest
		{
			OFFSET 0.000000 8.438565 -0.680529 
			CHANNELS 3 Xrotation Zrotation Yrotation
			JOINT neck
			{
				OFFSET 0.000000 10.207942 -0.272212 
				CHANNELS 3 Xrotation Zrotation Yrotation
				JOINT head
				{
					OFFSET 0.000000 3.130431 0.000000 
					CHANNELS 3 Xrotation Zrotation Yrotation
					End Site
					{
						OFFSET 0.000000 3.130435 0.000000 
					}
				}
			}
			JOINT lCollar
			{
				OFFSET 3.470700 6.669187 -0.816635 
				CHANNELS 3 Yrotation Zrotation Xrotation
				JOINT lShldr
				{
					OFFSET 3.198488 0.000000 0.000000 
					CHANNELS 3 Zrotation Yrotation Xrotation
					JOINT lForeArm
					{
						OFFSET 10.139888 0.000000 0.000000 
						CHANNELS 3 Yrotation Zrotation Xrotation
						JOINT lHand
						{
							OFFSET 8.370511 0.000000 0.000000 
							CHANNELS 3 Zrotation Yrotation Xrotation
							End Site
							{
								OFFSET 4.083176 0.000000 0.000000 
							}
						}
					}
				}
			}
			JOINT rCollar
			{
				OFFSET -3.470700 6.669187 -0.816635 
				CHANNELS 3 Yrotation Zrotation Xrotation
				JOINT rShldr
				{
					OFFSET -3.198488 0.000000 0.000000 
					CHANNELS 3 Zrotation Yrotation Xrotation
					JOINT rForeArm
					{
						OFFSET -10.139888 0.000000 0.000000 
						CHANNELS 3 Yrotation Zrotation Xrotation
						JOINT rHand
						{
							OFFSET -8.370511 0.000000 0.000000 
							CHANNELS 3 Zrotation Yrotation Xrotation
							End Site
							{
								OFFSET -4.083176 0.000000 0.000000 
							}
						}
					}
				}
			}
		}
	}
	JOINT lThigh
	{
		OFFSET 5.308129 -1.633274 1.361059 
		CHANNELS 3 Xrotation Zrotation Yrotation
		JOINT lShin
		{
			OFFSET -2.041588 -20.007561 0.000000 
			CHANNELS 3 Xrotation Zrotation Yrotation
			JOINT lFoot
			{
				OFFSET 0.000000 -19.190928 -1.224953 
				CHANNELS 3 Xrotation Yrotation Zrotation
				End Site
				{
					OFFSET 0.000000 -2.449906 4.627600 
				}
			}
		}
	}
	JOINT rThigh
	{
		OFFSET -5.308129 -1.633274 1.361059 
		CHANNELS 3 Xrotation Zrotation Yrotation
		JOINT rShin
		{
			OFFSET 2.041588 -20.007561 0.000000 
			CHANNELS 3 Xrotation Zrotation Yrotation
			JOINT rFoot
			{
				OFFSET 0.000000 -19.190928 -1.224953 
				CHANNELS 3 Xrotation Yrotation Zrotation
				End Site
				{
					OFFSET 0.000000 -2.449906 4.627600 
				}
			}
		}
	}
}
MOTION
Frames: 10
Frame Time: 0.016667
-2.698076 47.710308 -1.504153 1.083984 0.478516 31.699266 0.000000 0.000000 0.000000 4.814453 0.048828 -5.771483 9.833985 5.087891 -23.583118 -15.996095 -0.917969 0.117188 1.992188 -2.001953 0.000341 -65.205078 0.039063 16.210949 -45.537109 -3.759766 9.335938 14.667970 3.203125 -5.185049 -2.001953 1.992188 0.000000 59.609375 16.308594 1.135556 43.359375 0.498047 14.872942 22.509766 0.634766 1.689563 -15.216872 8.094288 -18.882963 39.540890 -6.089873 -1.524233 -25.012430 13.540946 -7.272994 -11.758019 -21.197128 -29.544714 34.987701 10.775096 5.606615 -20.394608 7.612576 -3.266108 
-2.718798 47.801983 -1.986769 1.035156 1.015622 35.361588 0.000000 0.000000 0.000000 4.062500 -0.156250 -4.130886 10.751953 5.468750 -28.690475 -15.996095 -0.917969 0.117188 1.992188 -2.001953 0.000341 -66.455078 3.710938 19.414696 -48.339840 -3.916016 9.160823 13.125000 -2.089844 -3.017578 -2.001953 1.992188 0.000000 56.445313 16.542969 1.738281 48.349609 0.517578 14.853495 21.562500 2.304688 -3.007420 -16.138838 7.450768 -18.804316 39.732182 -6.154232 -1.517660 -24.359175 9.690456 -7.193794 -10.791268 -21.424007 -29.076490 34.392063 10.579969 5.494212 -20.358313 3.424351 -3.170103 
-2.833544 47.707664 -2.113602 1.025391 1.279297 37.187618 0.000000 0.000000 0.000000 3.730469 -0.244138 -3.271562 11.152345 5.683594 -31.229500 -15.996095 -0.917969 0.117188 1.992188 -2.001953 0.000341 -68.457031 10.458985 28.632811 -95.107422 -5.009766 5.489134 -11.894531 -2.363281 7.030848 -2.001953 1.992188 0.000000 59.433594 4.697266 11.651191 134.931641 0.322266 14.443304 1.923828 9.970703 -72.312759 -16.476702 7.167313 -18.723337 39.719215 -6.183002 -1.507131 -23.968718 7.792026 -7.181208 -10.224950 -21.571123 -29.143208 34.042969 10.460952 5.449360 -20.364887 1.633832 -3.100075 
-2.791378 47.860126 -2.164183 0.419922 0.908203 39.677734 0.000000 0.000000 0.000000 3.632813 -0.673828 -8.173827 12.373047 7.080078 -29.315203 -15.996095 -0.917969 0.117188 1.992188 -2.001953 0.000341 -71.982422 8.955079 22.003473 -93.789063 -5.019531 5.605469 -12.021484 -2.421875 6.748048 -2.001953 1.992188 0.000000 50.839844 14.160156 6.572265 115.253906 0.410156 14.492116 7.080078 15.908204 -79.121086 -16.792299 7.977851 -19.033096 39.311607 -6.118371 -1.452890 -23.338203 5.302455 -7.501987 -8.692315 -20.120281 -29.680342 32.572136 10.012792 5.163135 -20.219452 -0.786151 -2.945498 
-2.765882 48.023182 -2.217116 -0.283203 0.527344 42.382877 0.000000 0.000000 0.000000 3.583984 -1.123047 -12.910158 13.710938 8.544921 -27.820816 -15.996095 -0.917969 0.117188 1.992188 -2.001953 0.000341 -74.853516 7.880859 14.667968 -93.173828 -5.029297 5.664919 -12.275390 -2.539063 6.181210 -2.001953 1.992188 0.000000 41.718750 22.880859 -0.728625 95.683594 0.488281 14.589738 11.650392 22.402344 -85.572449 -17.068825 8.886391 -19.357849 38.789318 -6.017955 -1.395902 -22.726231 2.636616 -7.819297 -7.071672 -18.528294 -30.264084 30.734802 9.484857 4.851230 -19.879721 -3.438069 -2.713431 
-2.732051 48.176971 -2.268872 -0.957031 0.205078 44.990238 0.000000 0.000000 0.000000 3.564453 -1.572266 -17.734375 15.234375 9.941407 -26.357424 -15.996095 -0.917969 0.117188 1.992188 -2.001953 0.000341 -77.275391 5.771485 7.773437 -92.207031 -5.029296 5.751953 -12.460938 -2.617188 5.761272 -2.001953 1.992188 0.000000 34.521484 27.519529 -6.542969 79.277344 0.517578 14.667948 15.683593 29.550779 -92.099609 -17.408157 9.706275 -19.669399 38.241463 -5.959243 -1.359525 -22.038397 0.096938 -8.090121 -5.538977 -16.867414 -30.761618 28.832895 8.943854 4.528343 -19.447170 -5.997665 -2.518002 
-2.664888 48.302616 -2.315934 -1.513672 -0.039063 47.167973 0.000000 0.000000 0.000000 3.564453 -2.011719 -22.910154 16.982420 11.093749 -24.589846 -15.996095 -0.917969 0.117188 1.992188 -2.001953 0.000341 -78.925781 1.240234 2.646696 -89.814453 -5.039062 5.937500 -12.177733 -2.490234 6.396060 -2.001953 1.992188 0.000000 30.019531 28.886717 -9.155440 65.947266 0.527344 14.745982 19.023438 37.431641 -99.095627 -17.754444 10.330359 -19.896721 37.844833 -5.880236 -1.333976 -21.538366 -2.099151 -8.295144 -4.219962 -15.435437 -31.185999 27.056082 8.401761 4.279661 -18.904993 -8.161680 -2.285614 
-2.539387 48.382023 -2.354771 -1.904297 -0.185547 48.574219 0.000000 0.000000 0.000000 3.583984 -2.421875 -28.710939 19.042967 11.767577 -22.138676 -15.996095 -0.917969 0.117188 1.992188 -2.001953 0.000341 -79.296875 -6.982422 0.527344 -84.902344 -5.029297 6.347656 -11.894531 -2.363281 7.030848 -2.001953 1.992188 0.000000 26.416014 31.259768 -11.650389 53.291019 0.517578 14.824108 21.816404 44.931641 -104.882813 -17.858414 10.712175 -19.997946 37.576508 -5.806573 -1.312430 -21.269667 -3.511177 -8.377963 -3.273317 -14.436996 -31.443552 25.729446 7.982290 4.086563 -18.533060 -9.534830 -2.038341 
-2.340562 48.422703 -2.389534 -2.060547 -0.263672 49.257767 0.000000 0.000000 0.000000 3.603516 -2.832031 -35.712891 21.513672 11.630858 -18.378906 -15.996095 -0.917969 0.117188 1.992188 -2.001953 0.000341 -77.441406 -21.513672 2.265625 -75.195313 -4.921875 7.167968 -10.742187 -2.314453 8.769137 -2.001953 1.992188 0.000000 31.279299 39.804688 -10.071871 49.199219 0.517578 14.843727 27.460938 44.345707 -99.133804 -17.844685 10.818871 -20.039471 37.623680 -5.831717 -1.296197 -21.246349 -4.201372 -8.268982 -2.686393 -14.178619 -31.602270 24.885031 7.746627 3.955146 -18.109724 -10.195824 -1.600251 
-2.086419 48.446175 -2.425153 -2.080078 -0.302734 49.560547 0.000000 0.000000 0.000000 3.642578 -3.222656 -43.720699 24.238279 10.537108 -13.486331 -15.996095 -0.917969 0.117188 1.992188 -2.001953 0.000341 -73.496094 -40.937496 6.976024 -61.445313 -4.521484 8.242957 -9.072266 -2.558594 10.819877 -2.001953 1.992188 0.000000 38.671875 49.970703 -6.222991 43.232422 0.507813 14.872938 33.720707 43.896484 -92.053780 -17.741629 10.751342 -19.980856 37.660435 -5.860739 -1.280289 -21.377434 -4.509323 -8.118731 -2.266267 -13.964588 -31.680059 24.289953 7.531947 3.896564 -17.937260 -10.526545 -1.338764 
